<svg width="320" height="568" viewBox="0 0 320 568" fill="none" xmlns="http://www.w3.org/2000/svg">
<g clip-path="url(#clip0_1278_1377)">
<rect width="320" height="568" fill="white"/>
<ellipse cx="53" cy="69.5" rx="122" ry="117.5" fill="#1B1B1B"/>
<path d="M413.5 305.5C413.5 369.512 359.604 421.5 293 421.5C226.396 421.5 172.5 369.512 172.5 305.5C172.5 241.488 226.396 189.5 293 189.5C359.604 189.5 413.5 241.488 413.5 305.5Z" fill="#1B1B1B" stroke="#1B1B1B" stroke-width="3"/>
<path d="M77.5 361C77.5 392.698 50.6964 418.5 17.5 418.5C-15.6964 418.5 -42.5 392.698 -42.5 361C-42.5 329.302 -15.6964 303.5 17.5 303.5C50.6964 303.5 77.5 329.302 77.5 361Z" fill="#1B1B1B" stroke="#1B1B1B" stroke-width="3"/>
<path d="M352.5 31C352.5 62.6983 325.696 88.5 292.5 88.5C259.304 88.5 232.5 62.6983 232.5 31C232.5 -0.698313 259.304 -26.5 292.5 -26.5C325.696 -26.5 352.5 -0.698313 352.5 31Z" fill="#1B1B1B" stroke="#1B1B1B" stroke-width="3"/>
<g filter="url(#filter0_b_1278_1377)">
<ellipse cx="156" cy="194.5" rx="107" ry="104.5" fill="black" fill-opacity="0.24"/>
</g>
<path d="M250.999 360C353.999 184 48.9678 106.828 140.999 -19.0009" stroke="#1ADB5C" stroke-width="3"/>
<path d="M155.5 181H164V192H153.5L155.5 181Z" fill="#C2C2C2"/>
<rect x="166.902" y="221.205" width="9.84571" height="37.6845" transform="rotate(-134.368 166.902 221.205)" fill="#1B1B1B"/>
<rect x="163.154" y="197.327" width="9.84571" height="33.0221" transform="rotate(-44.3678 163.154 197.327)" fill="#1B1B1B"/>
<rect x="165.508" y="196.403" width="5.44971" height="30.0124" transform="rotate(-44.3678 165.508 196.403)" fill="#C2C2C2"/>
<rect x="166.885" y="218.334" width="5.60829" height="33.7736" transform="rotate(-134.368 166.885 218.334)" fill="#C2C2C2"/>
<path d="M127.244 217L137.044 168H159.654C164.787 168 168.731 168.933 171.484 170.8C174.237 172.667 175.614 175.397 175.614 178.99C175.614 182.07 174.821 184.66 173.234 186.76C171.694 188.86 169.687 190.447 167.214 191.52C164.787 192.593 162.174 193.13 159.374 193.13L161.124 190.75C164.811 190.75 167.797 191.683 170.084 193.55C172.371 195.37 173.514 198.053 173.514 201.6C173.514 205.007 172.581 207.853 170.714 210.14C168.894 212.427 166.351 214.153 163.084 215.32C159.864 216.44 156.107 217 151.814 217H127.244ZM137.744 209.86H152.444C156.224 209.86 159.164 209.16 161.264 207.76C163.364 206.36 164.414 204.307 164.414 201.6C164.414 199.407 163.644 197.89 162.104 197.05C160.564 196.163 158.394 195.72 155.594 195.72H139.284L140.684 188.65H154.894C157.134 188.65 159.094 188.37 160.774 187.81C162.501 187.203 163.807 186.293 164.694 185.08C165.627 183.82 166.094 182.303 166.094 180.53C166.094 178.663 165.347 177.31 163.854 176.47C162.407 175.583 160.331 175.14 157.624 175.14H144.674L137.744 209.86Z" fill="white"/>
<path d="M151.5 185L157 186L165.5 183C165.956 187.03 157.957 191.331 155.5 191C155.417 190.146 163.442 193.122 164 196C164.558 198.878 151.5 199 151.5 199V185Z" fill="#C2C2C2"/>
<path d="M143 187H154V198L141 197.5L143 187Z" fill="#C2C2C2"/>
<path d="M164.705 200.462C164.705 203.5 163.586 205.962 162.205 205.962C160.825 205.962 160 203.538 160 200.5C160 197.462 161.119 194.5 162.5 194.5C163.881 194.5 164.705 197.425 164.705 200.462Z" fill="#C2C2C2"/>
<path d="M166 185.5H172C176.414 182.117 174.946 184.737 170 191.5C173.063 195.721 174.246 201.826 172.4 197.5H166V185.5Z" fill="white"/>
<path d="M142.5 175H148L151.5 210H135.5L142.5 175Z" fill="#C2C2C2"/>
<path d="M-3.00028 264C205.681 338.572 239.088 226.678 329.404 150.022" stroke="black" stroke-width="4"/>
<path d="M-2.99906 117.499C84.0011 85.4999 210.406 143.294 329.405 150.022" stroke="#1ADB5C" stroke-width="4"/>
<path d="M135.35 175H143L141.65 183H134L135.35 175Z" fill="#C1C1C1"/>
</g>
<defs>
<filter id="filter0_b_1278_1377" x="19" y="60" width="274" height="269" filterUnits="userSpaceOnUse" color-interpolation-filters="sRGB">
<feFlood flood-opacity="0" result="BackgroundImageFix"/>
<feGaussianBlur in="BackgroundImageFix" stdDeviation="15"/>
<feComposite in2="SourceAlpha" operator="in" result="effect1_backgroundBlur_1278_1377"/>
<feBlend mode="normal" in="SourceGraphic" in2="effect1_backgroundBlur_1278_1377" result="shape"/>
</filter>
<clipPath id="clip0_1278_1377">
<rect width="320" height="568" fill="white"/>
</clipPath>
</defs>
</svg>
