<svg width="400" height="866" viewBox="0 0 400 866" fill="none" xmlns="http://www.w3.org/2000/svg">
<g clip-path="url(#clip0_1316_1398)">
<rect width="400" height="866" fill="white"/>
<path d="M-46 627.5H44V676.5H-46V627.5Z" fill="#D9D9D9"/>
<circle cx="72" cy="131" r="150" fill="#1B1B1B"/>
<circle cx="337.5" cy="464.5" r="148" fill="#1B1B1B" stroke="#1B1B1B" stroke-width="3"/>
<circle cx="29" cy="579" r="108.5" fill="#1B1B1B" stroke="#1B1B1B" stroke-width="3"/>
<path d="M458.5 26C458.5 80.4 414.4 124.5 360 124.5C305.6 124.5 261.5 80.4 261.5 26C261.5 -28.4 305.6 -72.5 360 -72.5C414.4 -72.5 458.5 -28.4 458.5 26Z" fill="#1B1B1B" stroke="#1B1B1B" stroke-width="3"/>
<g filter="url(#filter0_b_1316_1398)">
<circle cx="200" cy="287" r="125" fill="black" fill-opacity="0.24"/>
</g>
<path d="M199.5 275H208V286H197.5L199.5 275Z" fill="#C2C2C2"/>
<rect x="210.902" y="315.205" width="9.84571" height="37.6845" transform="rotate(-134.368 210.902 315.205)" fill="#1B1B1B"/>
<rect x="207.154" y="291.328" width="9.84571" height="33.0221" transform="rotate(-44.3678 207.154 291.328)" fill="#1B1B1B"/>
<rect x="209.508" y="290.402" width="5.44971" height="30.0124" transform="rotate(-44.3678 209.508 290.402)" fill="#C2C2C2"/>
<rect x="210.885" y="312.334" width="5.60829" height="33.7736" transform="rotate(-134.368 210.885 312.334)" fill="#C2C2C2"/>
<path d="M171.244 311L181.044 262H203.654C208.787 262 212.731 262.933 215.484 264.8C218.237 266.667 219.614 269.397 219.614 272.99C219.614 276.07 218.821 278.66 217.234 280.76C215.694 282.86 213.687 284.447 211.214 285.52C208.787 286.593 206.174 287.13 203.374 287.13L205.124 284.75C208.811 284.75 211.797 285.683 214.084 287.55C216.371 289.37 217.514 292.053 217.514 295.6C217.514 299.007 216.581 301.853 214.714 304.14C212.894 306.427 210.351 308.153 207.084 309.32C203.864 310.44 200.107 311 195.814 311H171.244ZM181.744 303.86H196.444C200.224 303.86 203.164 303.16 205.264 301.76C207.364 300.36 208.414 298.307 208.414 295.6C208.414 293.407 207.644 291.89 206.104 291.05C204.564 290.163 202.394 289.72 199.594 289.72H183.284L184.684 282.65H198.894C201.134 282.65 203.094 282.37 204.774 281.81C206.501 281.203 207.807 280.293 208.694 279.08C209.627 277.82 210.094 276.303 210.094 274.53C210.094 272.663 209.347 271.31 207.854 270.47C206.407 269.583 204.331 269.14 201.624 269.14H188.674L181.744 303.86Z" fill="white"/>
<path d="M195.5 279L201 280L209.5 277C209.956 281.03 201.957 285.331 199.5 285C199.417 284.146 207.442 287.122 208 290C208.558 292.878 195.5 293 195.5 293V279Z" fill="#C2C2C2"/>
<path d="M187 281H198V292L185 291.5L187 281Z" fill="#C2C2C2"/>
<path d="M208.705 294.462C208.705 297.5 207.586 299.962 206.205 299.962C204.825 299.962 204 297.538 204 294.5C204 291.462 205.119 288.5 206.5 288.5C207.881 288.5 208.705 291.425 208.705 294.462Z" fill="#C2C2C2"/>
<path d="M210 279.5H216C220.414 276.117 218.946 278.737 214 285.5C217.063 289.721 218.246 295.826 216.4 291.5H210V279.5Z" fill="white"/>
<path d="M186.5 269H192L195.5 304H179.5L186.5 269Z" fill="#C2C2C2"/>
<path d="M179.35 269H187L185.65 277H178L179.35 269Z" fill="#C1C1C1"/>
<path d="M274.387 567.412C521.428 204.848 -113.335 114.907 120.001 -41.0019" stroke="#1ADB5C" stroke-width="3"/>
<path d="M-28.3074 357.77C279.979 504.169 349.146 232.79 416 258.999" stroke="black" stroke-width="4"/>
<path d="M-24.0012 231C140.75 133.317 365.999 297 437.999 241.001" stroke="#1ADB5C" stroke-width="4"/>
</g>
<defs>
<filter id="filter0_b_1316_1398" x="45" y="132" width="310" height="310" filterUnits="userSpaceOnUse" color-interpolation-filters="sRGB">
<feFlood flood-opacity="0" result="BackgroundImageFix"/>
<feGaussianBlur in="BackgroundImageFix" stdDeviation="15"/>
<feComposite in2="SourceAlpha" operator="in" result="effect1_backgroundBlur_1316_1398"/>
<feBlend mode="normal" in="SourceGraphic" in2="effect1_backgroundBlur_1316_1398" result="shape"/>
</filter>
<clipPath id="clip0_1316_1398">
<rect width="400" height="866" fill="white"/>
</clipPath>
</defs>
</svg>
